<svg id="Layer_1" data-name="Layer 1" xmlns="http://www.w3.org/2000/svg" viewBox="0 0 283.86 101"><defs><style>.cls-1,.cls-3{fill:#23e9da;}.cls-2{fill:none;stroke:#fff;stroke-miterlimit:10;stroke-width:3px;}.cls-3{font-size:77.66px;font-family:Montserrat-Regular, Montserrat;}</style></defs><title>full-logo</title><path class="cls-1" d="M45.61,26.51a36.71,36.71,0,0,0-4.72-11.73,51.88,51.88,0,0,0-5.58-7.44A16.71,16.71,0,0,0,32.8,4.89a25.73,25.73,0,0,0-2.29-1.58,20.3,20.3,0,0,0-6.88-3A10.89,10.89,0,0,0,21.93,0a10,10,0,0,0-1.34,0,13.46,13.46,0,0,0-4.88,1.34A21.07,21.07,0,0,0,8,8.37,27.13,27.13,0,0,0,3.6,20.45a54.07,54.07,0,0,0,.81,17q1.78,9.75,8,21.85a93.13,93.13,0,0,0,8.33,13.66c.29.39.58.77.88,1.14l.18.17a46.52,46.52,0,0,0,4.35,4.63A148.51,148.51,0,0,0,36.75,64.42c.54-.86,1.06-1.73,1.56-2.59l-.06-.07Q44.82,51.17,46,42.26A44.81,44.81,0,0,0,45.61,26.51ZM37.1,41.44a27.09,27.09,0,0,1-4.6,11.38C32,51.9,31.5,51,31,50s-1-2.16-1.49-3.56a97.11,97.11,0,0,1-5.29-14.27,48.2,48.2,0,0,1-1.69-9.48,16.49,16.49,0,0,1,.52-5.79,8.45,8.45,0,0,1,1.55-3,4.56,4.56,0,0,1,1.9-.8c1.05-.29,2.58.7,4.57,3a23.21,23.21,0,0,1,3.46,5.68,32.24,32.24,0,0,1,2.55,8.91A37.29,37.29,0,0,1,37.1,41.44Z"/><path class="cls-2" d="M32.12,63.83l0,0"/><path class="cls-1" d="M.55,100a4.69,4.69,0,0,1-.55.37Z"/><path class="cls-1" d="M70.19,101c-.86,0-1.74,0-2.63,0H67.4a49.6,49.6,0,0,1-13-2.35c-9.36-3-15.42-8.08-19.27-11a55.41,55.41,0,0,1-9-8.81s-2.17,2.31-7.51,7.5C14,90.91,3.14,98.22.55,100c1.06-.8,3.72-3.18,9-9.89A196.49,196.49,0,0,0,20.77,72.92c6.07-10.06,11.69-20.14,11.69-20.14a80.55,80.55,0,0,0,3.62,10.14c.19.45.42,1,.67,1.5a79.27,79.27,0,0,0,4.81,9,51.44,51.44,0,0,0,7,9.71A38.09,38.09,0,0,0,61,91.58,45.55,45.55,0,0,0,73.52,96c7.54,1.45,12.58.37,12.69,1.1S79.12,100.71,70.19,101Z"/><path class="cls-1" d="M20.77,72.92"/><text class="cls-3" transform="translate(63.22 76.86)">nabol</text></svg>