<svg id="Layer_1" data-name="Layer 1" xmlns="http://www.w3.org/2000/svg" viewBox="0 0 1024 1024"><defs><style>.cls-1{fill:#23e9da;}.cls-2,.cls-3{fill:none;}.cls-2{stroke:#fff;stroke-miterlimit:10;stroke-width:3px;}</style></defs><title>logo2</title><path class="cls-1" d="M533.18,309.55q-13.18-57.67-39.82-99t-47.09-62.81a144.45,144.45,0,0,0-21.16-20.67,207,207,0,0,0-19.32-13.27,169.11,169.11,0,0,0-58-25.66A87.43,87.43,0,0,0,333.39,86a88.61,88.61,0,0,0-11.29,0q-20,1.25-41.17,11.28-36.49,18.21-65.21,59.17t-37,101.91q-8.31,61,6.8,143.2T253.3,586q34.4,67.49,70.27,115.23,3.71,4.94,7.41,9.64l1.56,1.41a382.19,382.19,0,0,0,36.73,39.08s49.57-58.91,89.14-121.84c4.57-7.26,9-14.58,13.21-21.87-.18-.2-.37-.4-.55-.61q55.56-89.32,65.43-164.55T533.18,309.55Zm-71.75,126q-6.69,48.15-38.81,96-6.5-11.61-12.34-24.07t-12.63-30.06q-31.8-71.7-44.6-120.45t-14.27-80q-1.47-31.32,4.43-48.81c3.94-11.64,8.25-20.07,13-25.29q2.82-3.11,16.11-6.73t38.57,25.07q14.22,15.79,29.19,48t21.51,75.2Q468.13,387.41,461.43,435.56Z"/><path class="cls-2" d="M419.39,624.51c-.1.09-.18.19-.28.3"/><path class="cls-1" d="M152.94,929.32a32.9,32.9,0,0,1-4.63,3.09Z"/><path class="cls-1" d="M740.64,938c-7.26.22-14.66.25-22.15,0l-1.34,0c-12.23-.4-55.67-2.63-109.71-19.79-79-25.09-130.15-68.19-162.62-92.55C402.52,793.93,369,751.33,369,751.33s-18.33,19.51-63.35,63.3C266.16,853,174.81,914.73,152.94,929.32c8.93-6.74,31.42-26.85,76-83.49,24.51-31.15,60.42-87.86,94.66-144.65,51.21-84.9,98.67-170,98.67-170a684.93,684.93,0,0,0,30.52,85.57q2.5,5.79,5.65,12.69A695.16,695.16,0,0,0,499,705.36c20.19,32.7,35,56.72,59.49,82,19.26,19.87,52.53,48.8,104.44,71.4a386.25,386.25,0,0,0,105.77,37c63.69,12.2,106.18,3.16,107.09,9.26C876.91,912.38,816,935.73,740.64,938Z"/><path class="cls-3" d="M717.15,938H148V86H322.1q-20,1.25-41.17,11.28-36.49,18.21-65.21,59.17t-37,101.91q-8.31,61,6.8,143.2T253.3,586q34.4,67.49,70.27,115.23c-34.24,56.79-70.15,113.5-94.66,144.65-44.55,56.64-67,76.75-76,83.49l-4.63,3.09a32.9,32.9,0,0,0,4.63-3.09c21.87-14.59,113.22-76.28,152.7-114.69,45-43.79,63.35-63.3,63.35-63.3s33.53,42.6,75.83,74.33c32.47,24.36,83.61,67.46,162.62,92.55C661.48,935.37,704.92,937.6,717.15,938Z"/><path class="cls-3" d="M152.94,929.32a32.9,32.9,0,0,1-4.63,3.09Z"/><path class="cls-3" d="M461.43,435.56q-6.69,48.15-38.81,96-6.5-11.61-12.34-24.07t-12.63-30.06q-31.8-71.7-44.6-120.45t-14.27-80q-1.47-31.32,4.43-48.81c3.94-11.64,8.25-20.07,13-25.29q2.82-3.11,16.11-6.73t38.57,25.07q14.22,15.79,29.19,48t21.51,75.2Q468.13,387.41,461.43,435.56Z"/><path class="cls-3" d="M875.82,905c-.91-6.1-43.4,2.94-107.09-9.26a386.25,386.25,0,0,1-105.77-37c-51.91-22.6-85.18-51.53-104.44-71.4-24.46-25.24-39.3-49.26-59.49-82a695.16,695.16,0,0,1-40.62-75.89c4.57-7.26,9-14.58,13.21-21.87-.18-.2-.37-.4-.55-.61q55.56-89.32,65.43-164.55t-3.32-132.89q-13.18-57.67-39.82-99t-47.09-62.81a144.45,144.45,0,0,0-21.16-20.67,207,207,0,0,0-19.32-13.27,169.11,169.11,0,0,0-58-25.66A87.43,87.43,0,0,0,333.39,86H322.1q-20,1.25-41.17,11.28-36.49,18.21-65.21,59.17t-37,101.91q-8.31,61,6.8,143.2T253.3,586q34.4,67.49,70.27,115.23c-34.24,56.79-70.15,113.5-94.66,144.65-44.55,56.64-67,76.75-76,83.49,21.87-14.59,113.22-76.28,152.7-114.69,45-43.79,63.35-63.3,63.35-63.3s33.53,42.6,75.83,74.33c32.47,24.36,83.61,67.46,162.62,92.55,54,17.16,97.48,19.39,109.71,19.79h23.49C816,935.73,876.91,912.38,875.82,905ZM343.21,228.12c3.94-11.64,8.25-20.07,13-25.29q2.82-3.11,16.11-6.73t38.57,25.07q14.22,15.79,29.19,48t21.51,75.2q6.54,43.08-.16,91.23t-38.81,96q-6.5-11.61-12.34-24.07t-12.63-30.06q-31.8-71.7-44.6-120.45t-14.27-80Q337.31,245.61,343.21,228.12Z"/><path class="cls-3" d="M876,86V938H740.64c75.39-2.27,136.27-25.62,135.18-33-.91-6.1-43.4,2.94-107.09-9.26a386.25,386.25,0,0,1-105.77-37c-51.91-22.6-85.18-51.53-104.44-71.4-24.46-25.24-39.3-49.26-59.49-82a695.16,695.16,0,0,1-40.62-75.89c4.57-7.26,9-14.58,13.21-21.87-.18-.2-.37-.4-.55-.61q55.56-89.32,65.43-164.55t-3.32-132.89q-13.18-57.67-39.82-99t-47.09-62.81a144.45,144.45,0,0,0-21.16-20.67,207,207,0,0,0-19.32-13.27,169.11,169.11,0,0,0-58-25.66A87.43,87.43,0,0,0,333.39,86Z"/></svg>