<svg id="Capa_1" data-name="Capa 1" xmlns="http://www.w3.org/2000/svg" viewBox="0 0 1011.12 966.55"><defs><style>.cls-1{fill:#fff;}</style></defs><title>linkedin-01</title><path class="cls-1" d="M250.21,141.48c0,62.51-47,112.62-122.61,112.62h-1.41c-72.78,0-119.75-50.16-119.75-112.62,0-64,48.47-112.76,122.57-112.76S248.85,77.47,250.21,141.48Zm-231,853.75H236v-652H19.16ZM768,327.92c-115,0-166.46,63.15-195.39,107.67v2.09h-1.41a11.45,11.45,0,0,0,1.41-2.09V343.23H355.88c2.82,61.1,0,652.05,0,652.05H572.63V631.12c0-19.63,1.31-38.85,7.13-52.88,15.72-38.8,51.42-79.37,111.12-79.37,78.54,0,109.94,59.92,109.94,147.51v348.9h216.74V621.44C1017.6,421,910.57,327.92,768,327.92Z" transform="translate(-6.44 -28.72)"/></svg>